{
    "asset" : {
        "generator" : "Khronos glTF Blender I/O v1.7.33",
        "version" : "2.0"
    },
    "scene" : 0,
    "scenes" : [
        {
            "name" : "Scene",
            "nodes" : [
                0,
                1,
                2,
                3,
                4
            ]
        }
    ],
    "nodes" : [
        {
            "mesh" : 0,
            "name" : "BackSail",
            "translation" : [
                0,
                2.4529781341552734,
                -1.0479953289031982
            ]
        },
        {
            "mesh" : 1,
            "name" : "Front Sail",
            "translation" : [
                0,
                2.0498995780944824,
                1.1335394382476807
            ]
        },
        {
            "mesh" : 2,
            "name" : "MidleSail",
            "translation" : [
                0,
                2.4856271743774414,
                0.05081731081008911
            ]
        },
        {
            "mesh" : 3,
            "name" : "BigShip",
            "translation" : [
                -0.0019606351852416992,
                -0.07125312089920044,
                -0.0478428415954113
            ]
        },
        {
            "mesh" : 4,
            "name" : "Rudder",
            "rotation" : [
                -0.7071067690849304,
                0,
                0,
                0.7071068286895752
            ],
            "scale" : [
                0.0869232714176178,
                0.012918778695166111,
                0.0869232714176178
            ],
            "translation" : [
                0,
                1.2732477188110352,
                -1.9082071781158447
            ]
        }
    ],
    "materials" : [
        {
            "doubleSided" : true,
            "name" : "Wood",
            "pbrMetallicRoughness" : {
                "baseColorFactor" : [
                    0.4452012777328491,
                    0.21223080158233643,
                    0.09989874809980392,
                    1
                ],
                "metallicFactor" : 0,
                "roughnessFactor" : 0.5
            }
        },
        {
            "doubleSided" : true,
            "name" : "Fabric",
            "pbrMetallicRoughness" : {
                "baseColorFactor" : [
                    0.8000001907348633,
                    0.7059595584869385,
                    0.5128419399261475,
                    1
                ],
                "metallicFactor" : 0,
                "roughnessFactor" : 0.5
            }
        },
        {
            "doubleSided" : true,
            "name" : "DarkWood",
            "pbrMetallicRoughness" : {
                "baseColorFactor" : [
                    0.2738308310508728,
                    0.13255003094673157,
                    0.06372219324111938,
                    1
                ],
                "metallicFactor" : 0,
                "roughnessFactor" : 0.5
            }
        },
        {
            "doubleSided" : true,
            "name" : "LightWood",
            "pbrMetallicRoughness" : {
                "baseColorFactor" : [
                    0.723041296005249,
                    0.34038275480270386,
                    0.1574365198612213,
                    1
                ],
                "metallicFactor" : 0,
                "roughnessFactor" : 0.5
            }
        },
        {
            "doubleSided" : true,
            "name" : "DarkRed",
            "pbrMetallicRoughness" : {
                "baseColorFactor" : [
                    0.47698891162872314,
                    0.05061548203229904,
                    0.06254315376281738,
                    1
                ],
                "metallicFactor" : 0,
                "roughnessFactor" : 0.5
            }
        }
    ],
    "meshes" : [
        {
            "name" : "Cylinder.005",
            "primitives" : [
                {
                    "attributes" : {
                        "POSITION" : 0,
                        "NORMAL" : 1
                    },
                    "indices" : 2,
                    "material" : 0
                },
                {
                    "attributes" : {
                        "POSITION" : 3,
                        "NORMAL" : 4
                    },
                    "indices" : 5,
                    "material" : 1
                }
            ]
        },
        {
            "name" : "Cylinder.004",
            "primitives" : [
                {
                    "attributes" : {
                        "POSITION" : 6,
                        "NORMAL" : 7
                    },
                    "indices" : 8,
                    "material" : 0
                },
                {
                    "attributes" : {
                        "POSITION" : 9,
                        "NORMAL" : 10
                    },
                    "indices" : 11,
                    "material" : 1
                }
            ]
        },
        {
            "name" : "Cylinder.001",
            "primitives" : [
                {
                    "attributes" : {
                        "POSITION" : 12,
                        "NORMAL" : 13
                    },
                    "indices" : 14,
                    "material" : 0
                },
                {
                    "attributes" : {
                        "POSITION" : 15,
                        "NORMAL" : 16
                    },
                    "indices" : 17,
                    "material" : 1
                }
            ]
        },
        {
            "name" : "Cylinder",
            "primitives" : [
                {
                    "attributes" : {
                        "POSITION" : 18,
                        "NORMAL" : 19
                    },
                    "indices" : 20,
                    "material" : 0
                },
                {
                    "attributes" : {
                        "POSITION" : 21,
                        "NORMAL" : 22
                    },
                    "indices" : 23,
                    "material" : 1
                },
                {
                    "attributes" : {
                        "POSITION" : 24,
                        "NORMAL" : 25
                    },
                    "indices" : 26,
                    "material" : 2
                },
                {
                    "attributes" : {
                        "POSITION" : 27,
                        "NORMAL" : 28
                    },
                    "indices" : 29,
                    "material" : 3
                },
                {
                    "attributes" : {
                        "POSITION" : 30,
                        "NORMAL" : 31
                    },
                    "indices" : 32,
                    "material" : 4
                }
            ]
        },
        {
            "name" : "Cylinder.007",
            "primitives" : [
                {
                    "attributes" : {
                        "POSITION" : 33,
                        "NORMAL" : 34
                    },
                    "indices" : 35,
                    "material" : 0
                }
            ]
        }
    ],
    "accessors" : [
        {
            "bufferView" : 0,
            "componentType" : 5126,
            "count" : 192,
            "max" : [
                0.750220775604248,
                0.7949095368385315,
                0.27628475427627563
            ],
            "min" : [
                -0.7502208948135376,
                -0.31795626878738403,
                0.02890562266111374
            ],
            "type" : "VEC3"
        },
        {
            "bufferView" : 1,
            "componentType" : 5126,
            "count" : 192,
            "type" : "VEC3"
        },
        {
            "bufferView" : 2,
            "componentType" : 5123,
            "count" : 312,
            "type" : "SCALAR"
        },
        {
            "bufferView" : 3,
            "componentType" : 5126,
            "count" : 202,
            "max" : [
                0.847529411315918,
                0.7551331520080566,
                0.35047072172164917
            ],
            "min" : [
                -0.8475295305252075,
                -1.252240777015686,
                0.015355261974036694
            ],
            "type" : "VEC3"
        },
        {
            "bufferView" : 4,
            "componentType" : 5126,
            "count" : 202,
            "type" : "VEC3"
        },
        {
            "bufferView" : 5,
            "componentType" : 5123,
            "count" : 312,
            "type" : "SCALAR"
        },
        {
            "bufferView" : 6,
            "componentType" : 5126,
            "count" : 194,
            "max" : [
                0.62669837474823,
                0.6640293002128601,
                0.21677783131599426
            ],
            "min" : [
                -0.6266984939575195,
                -0.2656054198741913,
                0.01012920867651701
            ],
            "type" : "VEC3"
        },
        {
            "bufferView" : 7,
            "componentType" : 5126,
            "count" : 194,
            "type" : "VEC3"
        },
        {
            "bufferView" : 8,
            "componentType" : 5123,
            "count" : 312,
            "type" : "SCALAR"
        },
        {
            "bufferView" : 9,
            "componentType" : 5126,
            "count" : 206,
            "max" : [
                0.7079854011535645,
                0.6308019757270813,
                0.2901306748390198
            ],
            "min" : [
                -0.7079854607582092,
                -1.0460617542266846,
                -0.0011901134857907891
            ],
            "type" : "VEC3"
        },
        {
            "bufferView" : 10,
            "componentType" : 5126,
            "count" : 206,
            "type" : "VEC3"
        },
        {
            "bufferView" : 11,
            "componentType" : 5123,
            "count" : 312,
            "type" : "SCALAR"
        },
        {
            "bufferView" : 12,
            "componentType" : 5126,
            "count" : 266,
            "max" : [
                0.6477804780006409,
                0.993522047996521,
                0.2620416283607483
            ],
            "min" : [
                -0.6477804780006409,
                -0.6775243282318115,
                0.024059411138296127
            ],
            "type" : "VEC3"
        },
        {
            "bufferView" : 13,
            "componentType" : 5126,
            "count" : 266,
            "type" : "VEC3"
        },
        {
            "bufferView" : 14,
            "componentType" : 5123,
            "count" : 432,
            "type" : "SCALAR"
        },
        {
            "bufferView" : 15,
            "componentType" : 5126,
            "count" : 306,
            "max" : [
                0.7413927316665649,
                0.993522047996521,
                0.3291229009628296
            ],
            "min" : [
                -0.7413927316665649,
                -1.441591501235962,
                0.011023756116628647
            ],
            "type" : "VEC3"
        },
        {
            "bufferView" : 16,
            "componentType" : 5126,
            "count" : 306,
            "type" : "VEC3"
        },
        {
            "bufferView" : 17,
            "componentType" : 5123,
            "count" : 504,
            "type" : "SCALAR"
        },
        {
            "bufferView" : 18,
            "componentType" : 5126,
            "count" : 832,
            "max" : [
                0.5774224996566772,
                1.4262875318527222,
                1.774432897567749
            ],
            "min" : [
                -0.5735012292861938,
                -0.040698666125535965,
                -2.5566444396972656
            ],
            "type" : "VEC3"
        },
        {
            "bufferView" : 19,
            "componentType" : 5126,
            "count" : 832,
            "type" : "VEC3"
        },
        {
            "bufferView" : 20,
            "componentType" : 5123,
            "count" : 1572,
            "type" : "SCALAR"
        },
        {
            "bufferView" : 21,
            "componentType" : 5126,
            "count" : 132,
            "max" : [
                0.4902525544166565,
                2.112748146057129,
                3.458545207977295
            ],
            "min" : [
                -0.4863312840461731,
                0.8396568894386292,
                2.0020503997802734
            ],
            "type" : "VEC3"
        },
        {
            "bufferView" : 22,
            "componentType" : 5126,
            "count" : 132,
            "type" : "VEC3"
        },
        {
            "bufferView" : 23,
            "componentType" : 5123,
            "count" : 180,
            "type" : "SCALAR"
        },
        {
            "bufferView" : 24,
            "componentType" : 5126,
            "count" : 4526,
            "max" : [
                0.46348685026168823,
                3.7948553562164307,
                3.8187828063964844
            ],
            "min" : [
                -0.45956557989120483,
                -0.040698666125535965,
                -2.5242981910705566
            ],
            "type" : "VEC3"
        },
        {
            "bufferView" : 25,
            "componentType" : 5126,
            "count" : 4526,
            "type" : "VEC3"
        },
        {
            "bufferView" : 26,
            "componentType" : 5123,
            "count" : 6840,
            "type" : "SCALAR"
        },
        {
            "bufferView" : 27,
            "componentType" : 5126,
            "count" : 92,
            "max" : [
                0.49431538581848145,
                1.4262875318527222,
                1.640150785446167
            ],
            "min" : [
                -0.49039411544799805,
                0.6783483624458313,
                -1.828123927116394
            ],
            "type" : "VEC3"
        },
        {
            "bufferView" : 28,
            "componentType" : 5126,
            "count" : 92,
            "type" : "VEC3"
        },
        {
            "bufferView" : 29,
            "componentType" : 5123,
            "count" : 186,
            "type" : "SCALAR"
        },
        {
            "bufferView" : 30,
            "componentType" : 5126,
            "count" : 240,
            "max" : [
                0.008695505559444427,
                3.8089797496795654,
                1.167171835899353
            ],
            "min" : [
                -0.004774264991283417,
                2.917266607284546,
                -1.2024480104446411
            ],
            "type" : "VEC3"
        },
        {
            "bufferView" : 31,
            "componentType" : 5126,
            "count" : 240,
            "type" : "VEC3"
        },
        {
            "bufferView" : 32,
            "componentType" : 5123,
            "count" : 360,
            "type" : "SCALAR"
        },
        {
            "bufferView" : 33,
            "componentType" : 5126,
            "count" : 320,
            "max" : [
                1.3477765321731567,
                1,
                1.3585453033447266
            ],
            "min" : [
                -1.3477767705917358,
                -3.7864739894866943,
                -1.2694249153137207
            ],
            "type" : "VEC3"
        },
        {
            "bufferView" : 34,
            "componentType" : 5126,
            "count" : 320,
            "type" : "VEC3"
        },
        {
            "bufferView" : 35,
            "componentType" : 5123,
            "count" : 492,
            "type" : "SCALAR"
        }
    ],
    "bufferViews" : [
        {
            "buffer" : 0,
            "byteLength" : 2304,
            "byteOffset" : 0
        },
        {
            "buffer" : 0,
            "byteLength" : 2304,
            "byteOffset" : 2304
        },
        {
            "buffer" : 0,
            "byteLength" : 624,
            "byteOffset" : 4608
        },
        {
            "buffer" : 0,
            "byteLength" : 2424,
            "byteOffset" : 5232
        },
        {
            "buffer" : 0,
            "byteLength" : 2424,
            "byteOffset" : 7656
        },
        {
            "buffer" : 0,
            "byteLength" : 624,
            "byteOffset" : 10080
        },
        {
            "buffer" : 0,
            "byteLength" : 2328,
            "byteOffset" : 10704
        },
        {
            "buffer" : 0,
            "byteLength" : 2328,
            "byteOffset" : 13032
        },
        {
            "buffer" : 0,
            "byteLength" : 624,
            "byteOffset" : 15360
        },
        {
            "buffer" : 0,
            "byteLength" : 2472,
            "byteOffset" : 15984
        },
        {
            "buffer" : 0,
            "byteLength" : 2472,
            "byteOffset" : 18456
        },
        {
            "buffer" : 0,
            "byteLength" : 624,
            "byteOffset" : 20928
        },
        {
            "buffer" : 0,
            "byteLength" : 3192,
            "byteOffset" : 21552
        },
        {
            "buffer" : 0,
            "byteLength" : 3192,
            "byteOffset" : 24744
        },
        {
            "buffer" : 0,
            "byteLength" : 864,
            "byteOffset" : 27936
        },
        {
            "buffer" : 0,
            "byteLength" : 3672,
            "byteOffset" : 28800
        },
        {
            "buffer" : 0,
            "byteLength" : 3672,
            "byteOffset" : 32472
        },
        {
            "buffer" : 0,
            "byteLength" : 1008,
            "byteOffset" : 36144
        },
        {
            "buffer" : 0,
            "byteLength" : 9984,
            "byteOffset" : 37152
        },
        {
            "buffer" : 0,
            "byteLength" : 9984,
            "byteOffset" : 47136
        },
        {
            "buffer" : 0,
            "byteLength" : 3144,
            "byteOffset" : 57120
        },
        {
            "buffer" : 0,
            "byteLength" : 1584,
            "byteOffset" : 60264
        },
        {
            "buffer" : 0,
            "byteLength" : 1584,
            "byteOffset" : 61848
        },
        {
            "buffer" : 0,
            "byteLength" : 360,
            "byteOffset" : 63432
        },
        {
            "buffer" : 0,
            "byteLength" : 54312,
            "byteOffset" : 63792
        },
        {
            "buffer" : 0,
            "byteLength" : 54312,
            "byteOffset" : 118104
        },
        {
            "buffer" : 0,
            "byteLength" : 13680,
            "byteOffset" : 172416
        },
        {
            "buffer" : 0,
            "byteLength" : 1104,
            "byteOffset" : 186096
        },
        {
            "buffer" : 0,
            "byteLength" : 1104,
            "byteOffset" : 187200
        },
        {
            "buffer" : 0,
            "byteLength" : 372,
            "byteOffset" : 188304
        },
        {
            "buffer" : 0,
            "byteLength" : 2880,
            "byteOffset" : 188676
        },
        {
            "buffer" : 0,
            "byteLength" : 2880,
            "byteOffset" : 191556
        },
        {
            "buffer" : 0,
            "byteLength" : 720,
            "byteOffset" : 194436
        },
        {
            "buffer" : 0,
            "byteLength" : 3840,
            "byteOffset" : 195156
        },
        {
            "buffer" : 0,
            "byteLength" : 3840,
            "byteOffset" : 198996
        },
        {
            "buffer" : 0,
            "byteLength" : 984,
            "byteOffset" : 202836
        }
    ],
    "buffers" : [
        {
            "byteLength" : 203820,
            "uri" : "data:application/octet-stream;base64,"
        }
    ]
}
