{
    "asset" : {
        "generator" : "Khronos glTF Blender I/O v1.7.33",
        "version" : "2.0"
    },
    "scene" : 0,
    "scenes" : [
        {
            "name" : "Scene",
            "nodes" : [
                0,
                1
            ]
        }
    ],
    "nodes" : [
        {
            "mesh" : 0,
            "name" : "Sail",
            "scale" : [
                0.30000001192092896,
                0.30000001192092896,
                0.30000001192092896
            ],
            "translation" : [
                0.007558111567050219,
                1.647711157798767,
                -0.026813840493559837
            ]
        },
        {
            "mesh" : 1,
            "name" : "Viking Ship",
            "scale" : [
                0.30000001192092896,
                0.30000001192092896,
                0.30000001192092896
            ],
            "translation" : [
                0.004069752525538206,
                0.0030068159103393555,
                -0.014438221231102943
            ]
        }
    ],
    "materials" : [
        {
            "doubleSided" : true,
            "name" : "White",
            "pbrMetallicRoughness" : {
                "baseColorFactor" : [
                    0.7480654716491699,
                    0.8000001907348633,
                    0.6152136325836182,
                    1
                ],
                "metallicFactor" : 0,
                "roughnessFactor" : 0.5
            }
        },
        {
            "doubleSided" : true,
            "name" : "Red",
            "pbrMetallicRoughness" : {
                "baseColorFactor" : [
                    0.8000003695487976,
                    0.12909291684627533,
                    0.09950223565101624,
                    1
                ],
                "metallicFactor" : 0,
                "roughnessFactor" : 0.5
            }
        },
        {
            "doubleSided" : true,
            "name" : "DarkWood",
            "pbrMetallicRoughness" : {
                "baseColorFactor" : [
                    0.43965721130371094,
                    0.21223080158233643,
                    0.09530746936798096,
                    1
                ],
                "metallicFactor" : 0,
                "roughnessFactor" : 0.5
            }
        },
        {
            "doubleSided" : true,
            "name" : "Wood",
            "pbrMetallicRoughness" : {
                "baseColorFactor" : [
                    0.5583405494689941,
                    0.26635563373565674,
                    0.11953847110271454,
                    1
                ],
                "metallicFactor" : 0,
                "roughnessFactor" : 0.5
            }
        },
        {
            "doubleSided" : true,
            "name" : "LightWood",
            "pbrMetallicRoughness" : {
                "baseColorFactor" : [
                    0.6583750247955322,
                    0.3613068461418152,
                    0.18782080709934235,
                    1
                ],
                "metallicFactor" : 0,
                "roughnessFactor" : 0.5
            }
        }
    ],
    "meshes" : [
        {
            "name" : "Plane",
            "primitives" : [
                {
                    "attributes" : {
                        "POSITION" : 0,
                        "NORMAL" : 1
                    },
                    "indices" : 2,
                    "material" : 0
                },
                {
                    "attributes" : {
                        "POSITION" : 3,
                        "NORMAL" : 4
                    },
                    "indices" : 5,
                    "material" : 1
                },
                {
                    "attributes" : {
                        "POSITION" : 6,
                        "NORMAL" : 7
                    },
                    "indices" : 8,
                    "material" : 2
                }
            ]
        },
        {
            "name" : "Cylinder",
            "primitives" : [
                {
                    "attributes" : {
                        "POSITION" : 9,
                        "NORMAL" : 10
                    },
                    "indices" : 11,
                    "material" : 2
                },
                {
                    "attributes" : {
                        "POSITION" : 12,
                        "NORMAL" : 13
                    },
                    "indices" : 14,
                    "material" : 3
                },
                {
                    "attributes" : {
                        "POSITION" : 15,
                        "NORMAL" : 16
                    },
                    "indices" : 17,
                    "material" : 4
                }
            ]
        }
    ],
    "accessors" : [
        {
            "bufferView" : 0,
            "componentType" : 5126,
            "count" : 168,
            "max" : [
                1.865723967552185,
                2.8303987979888916,
                1.3102754354476929
            ],
            "min" : [
                -1.865724802017212,
                -2.8303990364074707,
                0.4108400344848633
            ],
            "type" : "VEC3"
        },
        {
            "bufferView" : 1,
            "componentType" : 5126,
            "count" : 168,
            "type" : "VEC3"
        },
        {
            "bufferView" : 2,
            "componentType" : 5123,
            "count" : 252,
            "type" : "SCALAR"
        },
        {
            "bufferView" : 3,
            "componentType" : 5126,
            "count" : 280,
            "max" : [
                2.612013816833496,
                2.8303987979888916,
                1.3102754354476929
            ],
            "min" : [
                -2.612014055252075,
                -2.8303990364074707,
                0.2325669378042221
            ],
            "type" : "VEC3"
        },
        {
            "bufferView" : 4,
            "componentType" : 5126,
            "count" : 280,
            "type" : "VEC3"
        },
        {
            "bufferView" : 5,
            "componentType" : 5123,
            "count" : 420,
            "type" : "SCALAR"
        },
        {
            "bufferView" : 6,
            "componentType" : 5126,
            "count" : 184,
            "max" : [
                1.824796438217163,
                2.830406427383423,
                1.0806496143341064
            ],
            "min" : [
                -1.8247965574264526,
                -2.8303990364074707,
                0.3410828709602356
            ],
            "type" : "VEC3"
        },
        {
            "bufferView" : 7,
            "componentType" : 5126,
            "count" : 184,
            "type" : "VEC3"
        },
        {
            "bufferView" : 8,
            "componentType" : 5123,
            "count" : 276,
            "type" : "SCALAR"
        },
        {
            "bufferView" : 9,
            "componentType" : 5126,
            "count" : 1138,
            "max" : [
                0.8381677269935608,
                8.230234146118164,
                7.663333415985107
            ],
            "min" : [
                -0.8381677269935608,
                -0.051067452877759933,
                -6.341546058654785
            ],
            "type" : "VEC3"
        },
        {
            "bufferView" : 10,
            "componentType" : 5126,
            "count" : 1138,
            "type" : "VEC3"
        },
        {
            "bufferView" : 11,
            "componentType" : 5123,
            "count" : 1728,
            "type" : "SCALAR"
        },
        {
            "bufferView" : 12,
            "componentType" : 5126,
            "count" : 262,
            "max" : [
                1.0298826694488525,
                2.642864465713501,
                6.257876396179199
            ],
            "min" : [
                -1.0298826694488525,
                0.2886594533920288,
                -6.095719337463379
            ],
            "type" : "VEC3"
        },
        {
            "bufferView" : 13,
            "componentType" : 5126,
            "count" : 262,
            "type" : "VEC3"
        },
        {
            "bufferView" : 14,
            "componentType" : 5123,
            "count" : 396,
            "type" : "SCALAR"
        },
        {
            "bufferView" : 15,
            "componentType" : 5126,
            "count" : 1232,
            "max" : [
                2.5129218101501465,
                2.058458089828491,
                4.895558834075928
            ],
            "min" : [
                -2.5129218101501465,
                0.5852967500686646,
                -4.562060356140137
            ],
            "type" : "VEC3"
        },
        {
            "bufferView" : 16,
            "componentType" : 5126,
            "count" : 1232,
            "type" : "VEC3"
        },
        {
            "bufferView" : 17,
            "componentType" : 5123,
            "count" : 1848,
            "type" : "SCALAR"
        }
    ],
    "bufferViews" : [
        {
            "buffer" : 0,
            "byteLength" : 2016,
            "byteOffset" : 0
        },
        {
            "buffer" : 0,
            "byteLength" : 2016,
            "byteOffset" : 2016
        },
        {
            "buffer" : 0,
            "byteLength" : 504,
            "byteOffset" : 4032
        },
        {
            "buffer" : 0,
            "byteLength" : 3360,
            "byteOffset" : 4536
        },
        {
            "buffer" : 0,
            "byteLength" : 3360,
            "byteOffset" : 7896
        },
        {
            "buffer" : 0,
            "byteLength" : 840,
            "byteOffset" : 11256
        },
        {
            "buffer" : 0,
            "byteLength" : 2208,
            "byteOffset" : 12096
        },
        {
            "buffer" : 0,
            "byteLength" : 2208,
            "byteOffset" : 14304
        },
        {
            "buffer" : 0,
            "byteLength" : 552,
            "byteOffset" : 16512
        },
        {
            "buffer" : 0,
            "byteLength" : 13656,
            "byteOffset" : 17064
        },
        {
            "buffer" : 0,
            "byteLength" : 13656,
            "byteOffset" : 30720
        },
        {
            "buffer" : 0,
            "byteLength" : 3456,
            "byteOffset" : 44376
        },
        {
            "buffer" : 0,
            "byteLength" : 3144,
            "byteOffset" : 47832
        },
        {
            "buffer" : 0,
            "byteLength" : 3144,
            "byteOffset" : 50976
        },
        {
            "buffer" : 0,
            "byteLength" : 792,
            "byteOffset" : 54120
        },
        {
            "buffer" : 0,
            "byteLength" : 14784,
            "byteOffset" : 54912
        },
        {
            "buffer" : 0,
            "byteLength" : 14784,
            "byteOffset" : 69696
        },
        {
            "buffer" : 0,
            "byteLength" : 3696,
            "byteOffset" : 84480
        }
    ],
    "buffers" : [
        {
            "byteLength" : 88176,
            "uri" : "data:application/octet-stream;base64,"
        }
    ]
}
